<svg xmlns="http://www.w3.org/2000/svg" viewBox="-8 -8 80 80">
  <rect x="-8" y="-8" width="80" height="80" fill="#477f80"/>
  <path d="M63.198 32.15c0 6.986-2.334 13.44-6.262 18.634C51.292 57.674 41.86 62 32.078 62 15.37 62 1.78 48.47 1.78 31.84c0-15.704 12.122-28.634 27.54-30.026L15.276 26.04c-4.258 8.554-1.108 18.945 7.184 23.694 8.7 5 19.816 2.034 24.84-6.624 5.026-8.66 2.04-19.728-6.654-24.728a18.2 18.2 0 00-8.438-2.406L39.91 2.68c8.8 2.28 16.31 8.316 20.308 16.24a30.76 30.76 0 012.98 13.23zm-38.386-1.968l-.027.046a7.728 7.728 0 002.877 10.544 7.802 7.802 0 0010.638-2.84l.02-.036a7.732 7.732 0 00-2.874-10.55 7.804 7.804 0 00-10.634 2.836z" fill="white"/>
</svg>
